<?xml version="1.0"?><svg width="640" height="480" xmlns="http://www.w3.org/2000/svg">
 <title>Oregon Outline</title>
 <metadata id="metadata5553">image/svg+xmlOregon2009-06-08Sarah A MorriganmapgeographyamericanaoregonwesternSarah Morrigan</metadata>
 <g>
  <title>Layer 1</title>
  <g id="layer1">
   <path d="m129.046143,48.428501l1.399597,15.470749l-4.19899,4.219288l1.399689,18.283569l0,5.62574l4.19899,7.032196l-1.399689,0l2.799393,9.845024l0,5.62574l-6.998383,-4.219368l-1.399612,28.128685l-1.399689,11.251282l-2.799408,16.877319l-1.399597,7.032288l1.399597,8.438171l-1.399597,5.626419l2.799294,5.625458l-2.799294,1.405853l-2.799393,14.06459l-1.399597,15.470474l-1.399704,16.877319l-2.799393,5.626419l-2.799286,8.438171l1.399689,8.438141l0,4.219574l0,5.625458l-4.199097,7.032288l-2.799286,7.032288l1.399696,7.032318l2.799294,7.032318l-11.197296,4.219543l-1.399689,1.405884l0,8.439117l0,8.438202l-4.199036,8.438171l-5.598679,12.658691l-1.399681,8.438171l6.99836,9.845032l2.799332,8.438171l-2.799332,11.251862l-1.399689,8.438171l0,7.032288l4.19902,12.657776l4.19899,8.439117l6.99839,2.812714l1.399605,1.40686l29.393173,1.405853l26.593658,0l34.991455,1.406891l47.589325,1.405853l68.583832,1.40686l124.57074,-1.40686l61.585358,-1.405853l50.387512,-2.812744l-6.998474,-160.334015l5.599426,-7.031311l-1.400146,-8.439133l2.799194,-9.845016l1.400146,-8.438171l-5.59845,-5.626419l-8.39856,-1.405869l-5.598389,-11.251877l1.399109,-9.845016l8.39856,-19.690033l9.797729,-21.095917c0,0 -8.398621,4.218597 -1.400146,-7.032288c6.998474,-11.251572 8.398621,-14.064484 11.197815,-29.535149c2.799194,-15.470764 6.998474,-21.096504 6.998474,-21.096504l0,-9.845016l-11.197815,-9.845024l-4.19928,-5.625717l-8.397583,-9.845032l-1.400085,-5.625736l-18.195251,1.40646l0,1.406456l-68.583862,1.406364l-33.592346,0l-9.797699,9.845016l-12.596863,-1.406349l-11.196808,2.81282l-12.597839,5.625717c0,0 -2.799225,1.406471 -8.397614,1.406471c-5.598389,0 -12.596893,2.812813 -12.596893,2.812813l-6.998505,7.032196l-11.197754,1.406364l-8.397614,-8.438553l-19.595367,12.657845l-13.996979,0l-2.799225,5.625725l-6.998474,-8.43856l-11.196777,-1.406448l-16.796204,-1.406372l-5.598404,5.625656l-5.59935,4.219368l-12.596893,1.406372l-15.396118,0l-12.596863,-2.812813l-5.599365,-5.625748l-1.399109,-9.845024l0,-8.43856l-4.19931,-14.064301l-5.598419,-7.032196l-12.597153,-7.03215l-5.598694,1.406441l-9.797684,-2.81287l-5.598694,-1.406433l-6.998291,4.219292l-5.598694,-1.406441l-12.596985,-2.812859z" stroke-width="15" stroke-miterlimit="4" stroke="#000000" fill-rule="evenodd" fill="none" id="path5571" stroke-linejoin="round"/>
  </g>
 </g>
</svg>